<svg xmlns="http://www.w3.org/2000/svg" xmlns:xlink="http://www.w3.org/1999/xlink" viewBox="0 0 608.28 566.93"><defs><style>.cls-1{isolation:isolate;}.cls-17,.cls-2{fill:#fff;}.cls-3{fill:#beded9;}.cls-4{fill:#3d6e00;}.cls-5{fill:#7db900;}.cls-6,.cls-8{fill:none;}.cls-6{stroke:#3d6e00;stroke-miterlimit:10;}.cls-7{fill:#010007;}.cls-9{opacity:0.2;}.cls-10{fill:#ff6700;}.cls-11{fill:#3f3f3f;}.cls-12{fill:#8bc8d8;}.cls-13{fill:#d64b34;}.cls-14{fill:#727272;}.cls-15,.cls-18{mix-blend-mode:screen;opacity:0.5;}.cls-15{fill:url(#linear-gradient);}.cls-16{fill:#999;}.cls-17{opacity:0.1;}.cls-18{fill:url(#linear-gradient-2);}</style><linearGradient id="linear-gradient" x1="711.02" y1="586.74" x2="777.43" y2="677.27" gradientTransform="translate(1229.34 -215.12) rotate(79.48)" gradientUnits="userSpaceOnUse"><stop offset="0" stop-color="#58595b"/><stop offset="0.25" stop-color="#393a3b"/><stop offset="0.56" stop-color="#1a1a1b"/><stop offset="0.82" stop-color="#070707"/><stop offset="1"/></linearGradient><linearGradient id="linear-gradient-2" x1="939.03" y1="613.68" x2="984.39" y2="684.63" gradientTransform="translate(1130.6 -498.85) rotate(64.33)" xlink:href="#linear-gradient"/></defs><g class="cls-1"><g id="Layer_1" data-name="Layer 1"><circle class="cls-2" cx="303.89" cy="283.76" r="283"/><circle class="cls-3" cx="307.07" cy="283.46" r="248.03"/><path class="cls-4" d="M618.64,706.2l20.5-98.39h442.91l10.61,50.93a249.22,249.22,0,0,0,4.16-45c0-3-.12-5.91-.23-8.86H601c-.1,2.95-.22,5.89-.22,8.86A247.41,247.41,0,0,0,618.64,706.2Z" transform="translate(-546.11 -331.24)"/><path class="cls-4" d="M848.79,861.75A249.77,249.77,0,0,0,897,857l-9.78-249.23H834l-9.91,252.71C832.23,861.32,840.46,861.75,848.79,861.75Z" transform="translate(-546.11 -331.24)"/><path class="cls-5" d="M973.72,828,952.13,607.81h-65L897,857A246.53,246.53,0,0,0,973.72,828Z" transform="translate(-546.11 -331.24)"/><path class="cls-4" d="M1042.34,768.74l-25.25-160.93h-65L973.72,828A249.28,249.28,0,0,0,1042.34,768.74Z" transform="translate(-546.11 -331.24)"/><path class="cls-5" d="M1017.09,607.81l25.67,160.4a246.93,246.93,0,0,0,49.9-109.47l-10.61-50.93Z" transform="translate(-546.11 -331.24)"/><path class="cls-5" d="M1042.76,768.21l-25.67-160.4,25.25,160.93Z" transform="translate(-546.11 -331.24)"/><path class="cls-5" d="M823.16,860.43l5-252.62H769.06L746.34,839.59A246.14,246.14,0,0,0,823.16,860.43Z" transform="translate(-546.11 -331.24)"/><path class="cls-5" d="M824.11,860.52,834,607.81h-5.9l-5,252.62Z" transform="translate(-546.11 -331.24)"/><path class="cls-4" d="M746.34,839.59l22.72-231.78h-65L675.37,791A248.5,248.5,0,0,0,746.34,839.59Z" transform="translate(-546.11 -331.24)"/><path class="cls-5" d="M674.87,790.5,704.1,607.81h-65l-20.5,98.39A248.44,248.44,0,0,0,674.87,790.5Z" transform="translate(-546.11 -331.24)"/><path class="cls-5" d="M675.37,791,704.1,607.81,674.87,790.5Z" transform="translate(-546.11 -331.24)"/><line class="cls-6" x1="54.87" y1="273.62" x2="550.49" y2="273.62"/><path class="cls-7" d="M850.18,898.17C693.87,898.17,566.71,771,566.71,614.7S693.87,331.24,850.18,331.24,1133.64,458.4,1133.64,614.7,1006.48,898.17,850.18,898.17Zm0-555.12c-149.79,0-271.66,121.86-271.66,271.65S700.39,886.36,850.18,886.36s271.65-121.87,271.65-271.66S1000,343.05,850.18,343.05Z" transform="translate(-546.11 -331.24)"/><path class="cls-8" d="M932.46,845.56l-14.13,4.57Q925.49,848.06,932.46,845.56Z" transform="translate(-546.11 -331.24)"/><path class="cls-8" d="M825.73,858.57l-40.28-7.48A244.52,244.52,0,0,0,825.73,858.57Z" transform="translate(-546.11 -331.24)"/><path class="cls-8" d="M850.18,369.62C715,369.62,605.1,479.56,605.1,614.7a244,244,0,0,0,13.55,80.38l73.68-4.28L709,692.52a12.36,12.36,0,0,1,14.66-1.26l2.05,1.26s.77.5,7.71,0,14-1.84,19.5-1.72,17.47,1.72,17.47,1.72,4.65-1.84,6.33-1.72,15,1.94,15,1.94,10.67.84,16-.22,17.15-1.72,17.15-1.72,14-6,18.77-4.34,18.84,4.34,18.84,4.34h20.85l11.71,2.25,25.45,1.66s16.05-.69,20.26,0,20.37.7,20.37.7l22.35-2.89h30.78c12.35,1.73,17.69,2.65,19.69,2.19s18-3.91,18-3.91l12,4.61h14l3.39.48a244.09,244.09,0,0,0,13.83-81.19C1095.25,470.4,994.47,369.62,850.18,369.62Z" transform="translate(-546.11 -331.24)"/><path class="cls-7" d="M1059.56,752.92l-35.24,42.34A253.32,253.32,0,0,0,1059.56,752.92Z" transform="translate(-546.11 -331.24)"/><path class="cls-7" d="M649,764.54l-30-52.11A251.59,251.59,0,0,0,649,764.54Z" transform="translate(-546.11 -331.24)"/><path class="cls-7" d="M932.46,845.56q-7,2.49-14.13,4.57l-18.71,6.06-56.74,5.56-17.15-3.18a244.52,244.52,0,0,1-40.28-7.48l-20.13-3.74L713,820.41l-53.65-42.92A250.57,250.57,0,0,0,1010.06,808l-48.68,28.16Z" transform="translate(-546.11 -331.24)"/><path class="cls-7" d="M605.1,614.7c0-135.14,109.94-245.08,245.08-245.08,144.29,0,245.07,100.78,245.07,245.08a244.09,244.09,0,0,1-13.83,81.19l3.59.5-14.21,37.89a249.51,249.51,0,0,0,30.36-119.58c0-68.85-24-131.86-67.56-177.42-46-48.13-109.44-73.56-183.42-73.56-138.4,0-251,112.59-251,251a249.84,249.84,0,0,0,13.33,80.74l6.13-.36A244,244,0,0,1,605.1,614.7Z" transform="translate(-546.11 -331.24)"/><path class="cls-9" d="M1017.07,804l7.25-8.71q-6.88,6.65-14.26,12.77Z" transform="translate(-546.11 -331.24)"/><path class="cls-9" d="M1070.8,734.28q-5.22,9.59-11.24,18.64l7.73-9.28Z" transform="translate(-546.11 -331.24)"/><path class="cls-9" d="M1064,695.41l-12-4.61s-16,3.45-18,3.91-7.34-.46-19.69-2.19H983.52l-22.35,2.89s-16.17,0-20.37-.7-20.26,0-20.26,0l-25.45-1.66-11.71-2.25H862.53s-14-2.67-18.84-4.34-18.77,4.34-18.77,4.34-11.81.67-17.15,1.72-16,.22-16,.22-13.35-1.83-15-1.94-6.33,1.72-6.33,1.72-12-1.61-17.47-1.72-12.55,1.22-19.5,1.72-7.71,0-7.71,0l-2.05-1.26A12.36,12.36,0,0,0,709,692.52l-16.68-1.72-73.68,4.28a246.14,246.14,0,0,0,166.8,156l40.28,7.48q12.06,1.2,24.45,1.21a244.25,244.25,0,0,0,68.15-9.65l14.13-4.57a246.35,246.35,0,0,0,149-149.67l-3.39-.48Z" transform="translate(-546.11 -331.24)"/><path class="cls-9" d="M653.91,773.17l5.4,4.32q-5.38-6.3-10.36-13Z" transform="translate(-546.11 -331.24)"/><path class="cls-7" d="M825.73,858.57l17.15,3.18,56.74-5.56,18.71-6.06a244.25,244.25,0,0,1-68.15,9.65Q837.81,859.78,825.73,858.57Z" transform="translate(-546.11 -331.24)"/><path class="cls-9" d="M825.73,858.57l17.15,3.18,56.74-5.56,18.71-6.06a244.25,244.25,0,0,1-68.15,9.65Q837.81,859.78,825.73,858.57Z" transform="translate(-546.11 -331.24)"/><path class="cls-7" d="M765.32,847.35l20.13,3.74a246.14,246.14,0,0,1-166.8-156l-6.13.36q2.94,8.64,6.48,17l30,52.11q5,6.66,10.36,13L713,820.41Z" transform="translate(-546.11 -331.24)"/><path class="cls-9" d="M765.32,847.35l20.13,3.74a246.14,246.14,0,0,1-166.8-156l-6.13.36q2.94,8.64,6.48,17l30,52.11q5,6.66,10.36,13L713,820.41Z" transform="translate(-546.11 -331.24)"/><path class="cls-7" d="M1085,696.39l-3.59-.5a246.35,246.35,0,0,1-149,149.67l28.92-9.37L1010.06,808q7.37-6.1,14.26-12.77l35.24-42.34q6-9.06,11.24-18.64Z" transform="translate(-546.11 -331.24)"/><path class="cls-9" d="M1085,696.39l-3.59-.5a246.35,246.35,0,0,1-149,149.67l28.92-9.37L1010.06,808q7.37-6.1,14.26-12.77l35.24-42.34q6-9.06,11.24-18.64Z" transform="translate(-546.11 -331.24)"/><path class="cls-10" d="M705.94,551.24s-3.71.83-4.76,4,0,8.42.56,8.42a30.08,30.08,0,0,0,3.89-1.42l1.86-9Z" transform="translate(-546.11 -331.24)"/><path class="cls-11" d="M790.19,653.25h252.07s4.45-24.23-3.9-31.6-29.22-11.2-29.22-11.2L899.78,603.9l-42.86-24.77L757.3,555.29l-36.94,5.08,13.19,70.17Z" transform="translate(-546.11 -331.24)"/><path class="cls-12" d="M880.59,531.93c-.09-19.32-7.33-62.7-7.33-62.7l-145.43,4.45a205.58,205.58,0,0,0-7.17,40.09,323.11,323.11,0,0,0,.12,41.53,274.9,274.9,0,0,1,40.44,3.34c35.8,5.56,51.18,43.6,51.18,43.6h60.66S880.68,551.24,880.59,531.93Zm-108.17-19.2c-.64,12.52-1.75,28.11-1.75,28.11s-40.35,7.51-44.24-2.51-1.24-38.93,5.56-59.26h46.19S773.06,500.21,772.42,512.73Zm97.1,27.83c-5.28,12.6-82.13,25.6-82.13-8.07s9.32-52.89,9.32-52.89l65.78-2.78S874.8,528,869.52,540.56Z" transform="translate(-546.11 -331.24)"/><path class="cls-13" d="M880.59,535.74s55.1,4,90.16,12c31.93,7.35,42.75,9.37,46.46,19.75s2.23,47.12,0,49.72-113.89,0-113.89,0a38.7,38.7,0,0,0-9.47-10.41c-6.3-4.82-20.79-4.61-20.79-4.61Z" transform="translate(-546.11 -331.24)"/><circle class="cls-14" cx="744.04" cy="631.75" r="62.07" transform="translate(-636.68 806.59) rotate(-71.57)"/><circle class="cls-15" cx="744.04" cy="631.75" r="56.02" transform="translate(-559.03 916.71) rotate(-79.48)"/><path class="cls-16" d="M777.66,631.75a33.6,33.6,0,1,1-33.6-33.6A33.59,33.59,0,0,1,777.66,631.75Z" transform="translate(-546.11 -331.24)"/><path class="cls-13" d="M723.3,463.94c4.08-5.38,35.75-8.58,78.42-12.29s76.81-1.1,78.87,1.5c3.35,4.21-7.33,16.08-7.33,16.08l-145.43,4.45S719.22,469.32,723.3,463.94Z" transform="translate(-546.11 -331.24)"/><path class="cls-11" d="M869.51,462.46c-5.38.93-48.6-2.14-72.72-2.32-23.54-.18-72.25,7.24-74.54,7.59.7,3.5,5.54,5.95,5.54,5.95l145.43-4.45s10.67-11.87,7.33-16.08C880.55,453.15,874.89,461.53,869.51,462.46Z" transform="translate(-546.11 -331.24)"/><path class="cls-11" d="M868.07,469.23s8.16,49.34,7.79,64.55-5.94,68.46-5.94,68.46h6s6-51.82,4.72-70.31-7.37-62.7-7.37-62.7Z" transform="translate(-546.11 -331.24)"/><path class="cls-11" d="M720.36,547.88s35.67-7,58.3,3.36,26.34,14.45,32.28,22.61S821.57,598,821.57,598h51.49v4.27l-52.59,1.66L779.4,565l-44.89-7.05-14.15,2.47Z" transform="translate(-546.11 -331.24)"/><path class="cls-11" d="M727.65,471.77S721.15,494.83,720,508s-1.41,48.6-1.41,48.6l4.51-1.28s-1.88-34.58,0-47,7.48-36.54,7.48-36.54Z" transform="translate(-546.11 -331.24)"/><path class="cls-13" d="M821.57,607s-6.47-19.83-15-27.77-29.89-31.16-67-27.64c-36.65,3.49-52.6,22.64-52.6,22.64s4.71,1,20.58-1.76,29.34-12.75,54.38-5.29C800.41,578.65,804.23,605.4,821.57,607Z" transform="translate(-546.11 -331.24)"/><path class="cls-11" d="M878.66,552.84s113.51,11.93,116.85,18,0,50.77,0,50.77H991.8s3.68-44.27.93-48.73S879,556.41,879,556.41Z" transform="translate(-546.11 -331.24)"/><path class="cls-11" d="M891.63,556.6s-2.56,12.06,1.5,14.28,37.08,2,37.08,2v-12Z" transform="translate(-546.11 -331.24)"/><path class="cls-11" d="M941.53,561.86s-2.23,21.64,10.76,27.2,41.18,6.12,41.18,6.12l1.11-23.55-12.74-3.34Z" transform="translate(-546.11 -331.24)"/><polygon class="cls-11" points="422.88 273.03 473 273.03 472.41 280.08 424.36 278.04 422.88 273.03"/><polygon class="cls-11" points="419.89 215.51 423.65 216.33 419.89 237.42 415.27 236.21 419.89 215.51"/><path class="cls-17" d="M904.52,620l23.93.56s-.09,31.53-2.87,31.53-17.16-.92-17.16-.92-.56-11.88-1.58-18.09S904.52,620,904.52,620Z" transform="translate(-546.11 -331.24)"/><path class="cls-14" d="M1009.14,649.47a47.23,47.23,0,1,1-47.23-47.23A47.22,47.22,0,0,1,1009.14,649.47Z" transform="translate(-546.11 -331.24)"/><circle class="cls-18" cx="961.91" cy="649.47" r="42.62" transform="translate(-586.26 903.87) rotate(-64.33)"/><path class="cls-11" d="M934,491.19c3.22-3.12,17-1.86,18.6,0s5.73,62.71,2.12,64.69-17.1,3.78-20.72-.82S930.82,494.32,934,491.19Z" transform="translate(-546.11 -331.24)"/><path class="cls-11" d="M941.81,555.58s-1.21,7,1.3,9.74,8,3.34,8,3.34l3.57-2.79s-6.12-1-6.82-3.43a36.1,36.1,0,0,1-.88-6.35Z" transform="translate(-546.11 -331.24)"/><path class="cls-11" d="M940,514.07s-1.29-30.6,1.49-35.24,16.88-9.09,16.88-9.09l-.74,5.82s-11.84,4-12.95,7.23,0,31.28,0,31.28Z" transform="translate(-546.11 -331.24)"/><path class="cls-13" d="M705.94,551.24s13.73-1.76,18.68,0,5.62,2.52,5.62,2.52l-24.61,8.1Z" transform="translate(-546.11 -331.24)"/><path class="cls-11" d="M783.57,472a302.18,302.18,0,0,0-7.88,41.78,377.2,377.2,0,0,0-2.91,42.14l8.53,3.86s1.23-24.71,2.26-43.89,6.62-44.09,6.62-44.09Z" transform="translate(-546.11 -331.24)"/><path class="cls-17" d="M781.48,485.43s-4.18,23.74-4.68,32.28l-1.6,27.86,3.83,1.32s.37-21.89,1.85-31.9,4.58-29.56,4.58-29.56Z" transform="translate(-546.11 -331.24)"/><circle class="cls-16" cx="414.88" cy="317.91" r="23.62"/><polyline class="cls-7" points="0.01 495.08 608.27 495.08 608.27 389.62 608.28 389.62 571.58 351.54 557.61 389.62 47.55 389.62 33.78 351.54 0 389.62"/><path class="cls-2" d="M698.56,741.93H686.23v-6.59h31.68v6.59H705.58v65.7h-7Z" transform="translate(-546.11 -331.24)"/><path class="cls-2" d="M748.2,807.63,739,775.85h-8.07v31.78h-7V735.34h11.91c13.71,0,19.45,6.38,19.45,20.2,0,11-3.51,16.58-9.36,19.24l9.78,32.85Zm-11.9-38.16c8.39,0,11.58-3.83,11.58-13.72,0-10.31-3.4-13.82-12-13.82h-5v27.54Z" transform="translate(-546.11 -331.24)"/><path class="cls-2" d="M783.49,788.5H767.66l-3.3,19.13h-6.59L771,734.92h9.67l13.19,72.71h-7.13Zm-14.66-6.6h13.6l-6.7-41h-.42Z" transform="translate(-546.11 -331.24)"/><path class="cls-2" d="M797,788.71V754.16c0-13.82,5.21-20.2,15.31-20.2H813c9.89,0,14.67,6.38,14.67,20.2v4.57h-6.48V753.2c0-9.35-2.45-13.18-8.5-13.18S804,743.85,804,753.2v36.25c0,9.36,2.66,13.4,8.72,13.4s8.5-4,8.5-13.4V785h6.48v3.72c0,13.82-4.57,20.3-14.56,20.3h-1C801.78,809,797,802.53,797,788.71Z" transform="translate(-546.11 -331.24)"/><path class="cls-2" d="M843.66,741.93H831.33v-6.59H863v6.59H850.67v65.7h-7Z" transform="translate(-546.11 -331.24)"/><path class="cls-2" d="M868.11,788.71V754.16c0-13.82,5.31-20.2,15.83-20.2h.64c10.53,0,15.84,6.38,15.84,20.2v34.55c0,13.82-4.89,20.3-15.73,20.3h-.85C873,809,868.11,802.53,868.11,788.71Zm25.3.74V753.2c0-9.46-2.66-13.18-9.15-13.18s-9.14,3.72-9.14,13.18v36.25c0,9.36,2.66,13.4,9.14,13.4S893.41,798.81,893.41,789.45Z" transform="translate(-546.11 -331.24)"/><path class="cls-2" d="M935,807.63l-9.25-31.78h-8.08v31.78h-7V735.34h11.91c13.71,0,19.45,6.38,19.45,20.2,0,11-3.5,16.58-9.35,19.24l9.78,32.85Zm-11.91-38.16c8.4,0,11.59-3.83,11.59-13.72,0-10.31-3.4-13.82-12-13.82h-5v27.54Z" transform="translate(-546.11 -331.24)"/><path class="cls-2" d="M994.49,741.93H974.08v25.62h18v6.59h-18v33.49h-6.8V735.34h27.21Z" transform="translate(-546.11 -331.24)"/><path class="cls-2" d="M1009.16,807.63h-7V735.34h7Z" transform="translate(-546.11 -331.24)"/></g></g></svg>